<svg width="45" height="45" viewBox="0 0 45 45" fill="none" xmlns="http://www.w3.org/2000/svg">
<path d="M12.5434 25.7649L4.28168 16.3077L12.5434 6.85045C13.211 6.08536 13.1331 4.92353 12.3681 4.2553C11.603 3.58769 10.4418 3.66617 9.77291 4.43064L0.454307 15.098C-0.151436 15.7908 -0.151436 16.8251 0.454307 17.5178L9.773 28.1853C10.1371 28.6009 10.6466 28.8143 11.1591 28.8143C11.5883 28.8143 12.0192 28.6647 12.3681 28.36C13.1332 27.6918 13.2116 26.5299 12.5434 25.7649Z" fill="black"/>
<path d="M31.6345 14.4684H1.8392C0.823359 14.4684 0 15.2917 0 16.3076C0 17.3235 0.823359 18.1468 1.8392 18.1468H31.6345C36.9761 18.1468 41.3216 22.4922 41.3216 27.8334C41.3216 33.1745 36.9761 37.5199 31.6345 37.5199H4.29152C3.27568 37.5199 2.45232 38.3432 2.45232 39.3591C2.45232 40.3749 3.27568 41.1983 4.29152 41.1983H31.6345C39.0036 41.1983 45 35.2025 45 27.8334C45 20.4643 39.0042 14.4684 31.6345 14.4684Z" fill="black"/>
</svg>
